<?xml version="1.0" encoding="UTF-8" standalone="no"?>
<svg
   xmlns:dc="http://purl.org/dc/elements/1.1/"
   xmlns:cc="http://creativecommons.org/ns#"
   xmlns:rdf="http://www.w3.org/1999/02/22-rdf-syntax-ns#"
   xmlns:svg="http://www.w3.org/2000/svg"
   xmlns="http://www.w3.org/2000/svg"
   viewBox="0 0 297.33334 249.33333"
   height="249.33333"
   width="297.33334"
   xml:space="preserve"
   id="svg2"
   version="1.1"><metadata
     id="metadata8"><rdf:RDF><cc:Work
         rdf:about=""><dc:format>image/svg+xml</dc:format><dc:type
           rdf:resource="http://purl.org/dc/dcmitype/StillImage" /></cc:Work></rdf:RDF></metadata><defs
     id="defs6"><clipPath
       id="clipPath18"
       clipPathUnits="userSpaceOnUse"><path
         id="path16"
         d="M 0,187 H 223 V 0 H 0 Z" /></clipPath></defs><g
     transform="matrix(1.3333333,0,0,-1.3333333,0,249.33333)"
     id="g10"><g
       id="g12"><g
         clip-path="url(#clipPath18)"
         id="g14"><g
           transform="translate(183.1538,132.4219)"
           id="g20"><path
             id="path22"
             style="fill:#ededed;fill-opacity:1;fill-rule:nonzero;stroke:none"
             d="m 0,0 -150.666,-4.039 c -6.948,-0.187 -12.434,-5.761 -12.258,-12.455 l 2.275,-84.869 c 0.179,-6.698 5.958,-11.974 12.903,-11.791 l 150.669,4.039 c 6.949,0.186 12.438,5.761 12.262,12.462 l -2.279,84.862 C 12.728,-5.09 6.944,0.183 0,0" /></g><g
           transform="translate(183.5122,131.21)"
           id="g24"><path
             id="path26"
             style="fill:#c7c7c6;fill-opacity:1;fill-rule:nonzero;stroke:none"
             d="m 0,0 -0.326,-0.004 -150.666,-4.035 c -6.264,-0.169 -11.232,-5.195 -11.074,-11.214 l 2.271,-84.866 c 0.161,-5.951 5.14,-10.611 11.339,-10.611 l 0.319,0.003 150.67,4.039 c 3.045,0.08 5.875,1.299 7.971,3.426 2.08,2.116 3.182,4.879 3.102,7.791 l -2.27,84.86 C 11.174,-4.66 6.195,0 0,0 m -148.456,-113.158 c -7.523,0 -13.57,5.699 -13.768,12.974 l -2.27,84.87 c -0.194,7.35 5.832,13.499 13.437,13.703 L 0,2.432 c 7.522,0 13.567,-5.703 13.764,-12.979 l 2.276,-84.862 c 0.095,-3.573 -1.256,-6.97 -3.808,-9.557 -2.532,-2.579 -5.958,-4.05 -9.634,-4.15 z" /></g><g
           transform="translate(176.1548,165.8008)"
           id="g28"><path
             id="path30"
             style="fill:#4b99c6;fill-opacity:1;fill-rule:nonzero;stroke:none"
             d="m 0,0 -146.282,-36.295 c -6.747,-1.672 -10.909,-8.294 -9.298,-14.798 l 20.439,-82.397 c 1.615,-6.5 8.391,-10.417 15.139,-8.742 l 146.286,36.292 c 6.748,1.671 10.912,8.296 9.295,14.8 L 15.142,-8.745 C 13.527,-2.238 6.748,1.672 0,0" /></g><g
           transform="translate(179.3013,164.9688)"
           id="g32"><path
             id="path34"
             style="fill:#ffffff;fill-opacity:1;fill-rule:nonzero;stroke:none"
             d="m 0,0 c -0.955,0 -1.916,-0.114 -2.855,-0.348 l -146.287,-36.296 c -2.952,-0.728 -5.453,-2.525 -7.042,-5.05 -1.578,-2.515 -2.062,-5.452 -1.359,-8.272 l 20.439,-82.398 c 1.196,-4.836 5.643,-8.207 10.809,-8.207 h 0.004 c 0.95,0 1.912,0.114 2.855,0.351 l 146.282,36.287 c 6.084,1.511 9.856,7.491 8.406,13.334 L 10.815,-8.204 C 9.613,-3.368 5.169,0 0,0 m -126.291,-143 h -0.004 c -6.285,0 -11.701,4.129 -13.169,10.051 l -20.439,82.394 c -0.862,3.473 -0.273,7.078 1.664,10.153 1.919,3.059 4.947,5.233 8.516,6.119 L -3.44,2.013 c 1.133,0.275 2.288,0.42 3.44,0.42 6.288,0 11.705,-4.129 13.176,-10.052 l 20.436,-82.399 c 1.771,-7.137 -2.799,-14.438 -10.188,-16.274 l -146.278,-36.289 c -1.13,-0.279 -2.29,-0.419 -3.437,-0.419" /></g><g
           transform="translate(75.1968,103.1113)"
           id="g36"><path
             id="path38"
             style="fill:#ffffff;fill-opacity:1;fill-rule:nonzero;stroke:none"
             d="m 0,0 c 0,3.132 -0.276,5.943 -0.814,8.43 -0.535,2.497 -1.381,4.616 -2.533,6.339 -1.155,1.736 -2.619,3.052 -4.401,3.966 -1.787,0.911 -3.903,1.368 -6.354,1.368 -2.152,0 -4.161,-0.234 -6.015,-0.7 -1.859,-0.46 -3.321,-1.123 -4.402,-1.98 -1.08,-0.854 -1.873,-2.734 -2.375,-5.639 -0.495,-2.906 -0.75,-6.83 -0.75,-11.784 0,-3.089 0.227,-5.887 0.672,-8.401 0.445,-2.512 1.187,-4.682 2.227,-6.504 1.041,-1.826 2.429,-3.233 4.15,-4.215 1.73,-0.986 3.879,-1.475 6.44,-1.475 2.636,0 4.806,0.238 6.517,0.718 1.708,0.491 3.158,1.145 4.345,1.958 0.56,0.37 1.04,1.12 1.449,2.235 0.406,1.117 0.753,2.483 1.03,4.104 0.283,1.618 0.484,3.426 0.617,5.413 C -0.071,-4.18 0,-2.12 0,0 m 10.489,0 c 0,-4.058 -0.513,-7.72 -1.528,-11.002 -1.03,-3.265 -2.572,-6.066 -4.639,-8.397 -2.062,-2.326 -4.641,-4.116 -7.73,-5.36 -3.092,-1.245 -6.687,-1.873 -10.776,-1.873 -4.208,0 -7.816,0.635 -10.83,1.902 -3.016,1.266 -5.481,3.063 -7.396,5.383 -1.923,2.332 -3.337,5.138 -4.244,8.409 -0.922,3.272 -1.37,6.919 -1.37,10.938 0,4.021 0.462,7.644 1.395,10.858 0.929,3.221 2.367,5.969 4.326,8.237 1.951,2.273 4.441,4.013 7.454,5.226 3.017,1.205 6.586,1.812 10.723,1.812 4.129,0 7.73,-0.607 10.801,-1.812 C -0.259,23.108 2.3,21.368 4.348,19.095 6.396,16.827 7.931,14.079 8.961,10.858 9.976,7.644 10.489,4.021 10.489,0" /></g><g
           transform="translate(107.4067,101.0479)"
           id="g40"><path
             id="path42"
             style="fill:#ffffff;fill-opacity:1;fill-rule:nonzero;stroke:none"
             d="m 0,0 1.345,0.28 c 1.299,0.294 2.529,0.682 3.684,1.145 1.151,0.463 2.145,1.155 2.985,2.069 0.839,0.904 1.499,2.11 1.983,3.599 0.484,1.485 0.721,3.382 0.721,5.696 0,3.458 -0.779,5.983 -2.339,7.559 -1.564,1.585 -3.608,2.378 -6.145,2.378 -0.63,0 -1.273,-0.019 -1.922,-0.058 -0.654,-0.036 -1.332,-0.115 -2.039,-0.219 V -23.836 H -11.67 V 27.36 c 1.044,0.072 2.178,0.147 3.408,0.222 1.227,0.072 2.504,0.137 3.827,0.194 1.318,0.054 2.641,0.097 3.957,0.112 1.332,0.017 2.601,0.028 3.832,0.028 3.016,0 5.628,-0.344 7.841,-1.037 2.217,-0.682 4.05,-1.66 5.503,-2.927 1.449,-1.266 2.529,-2.802 3.236,-4.609 0.703,-1.801 1.061,-3.839 1.061,-6.113 0,-2.375 -0.391,-4.613 -1.169,-6.697 C 19.04,4.449 17.842,2.627 16.225,1.063 14.606,-0.506 12.54,-1.732 10.025,-2.625 7.511,-3.515 4.523,-3.96 1.064,-3.96 H 0.613 Z" /></g><path
           id="path44"
           style="fill:#ffffff;fill-opacity:1;fill-rule:nonzero;stroke:none"
           d="m 146.546,77.212 h -9.94 v 51.473 h 9.94 z" /><g
           transform="translate(187.5298,92.2852)"
           id="g46"><path
             id="path48"
             style="fill:#ffffff;fill-opacity:1;fill-rule:nonzero;stroke:none"
             d="m 0,0 c 0,-1.862 -0.451,-3.734 -1.342,-5.614 -0.896,-1.876 -2.177,-3.574 -3.852,-5.076 -1.671,-1.51 -3.695,-2.741 -6.062,-3.684 -2.361,-0.947 -5.012,-1.432 -7.953,-1.432 -1.561,0 -3.014,0.097 -4.358,0.284 -1.335,0.186 -2.591,0.437 -3.767,0.753 -1.17,0.32 -2.296,0.706 -3.376,1.169 -1.076,0.47 -2.159,0.976 -3.239,1.537 l 2.454,7.647 c 0.71,-0.48 1.653,-1.005 2.823,-1.557 1.173,-0.563 2.446,-1.084 3.827,-1.564 1.37,-0.487 2.759,-0.886 4.157,-1.202 1.396,-0.316 2.673,-0.47 3.825,-0.47 1.299,0 2.371,0.079 3.211,0.248 0.839,0.169 1.589,0.401 2.259,0.699 0.747,0.294 1.342,1.037 1.787,2.236 0.448,1.187 0.67,2.729 0.67,4.63 0,1.75 -0.577,3.146 -1.728,4.186 -1.155,1.045 -2.602,1.945 -4.326,2.709 -1.734,0.76 -3.602,1.521 -5.612,2.289 -2.011,0.764 -3.884,1.75 -5.613,2.955 -1.732,1.209 -3.175,2.77 -4.326,4.667 -1.159,1.898 -1.73,4.388 -1.73,7.48 0,1.488 0.388,3.063 1.17,4.716 0.783,1.659 1.912,3.182 3.405,4.579 1.492,1.394 3.332,2.539 5.527,3.432 2.195,0.897 4.689,1.342 7.483,1.342 2.231,0 4.383,-0.108 6.454,-0.334 2.066,-0.226 4.056,-0.521 5.994,-0.896 l -1.557,-7.645 c -0.893,0.337 -1.916,0.653 -3.042,0.95 -1.141,0.295 -2.296,0.557 -3.466,0.779 -1.173,0.226 -2.32,0.395 -3.435,0.531 -1.116,0.129 -2.103,0.194 -2.956,0.194 -0.969,0 -1.867,-0.047 -2.68,-0.137 -0.821,-0.096 -1.567,-0.344 -2.235,-0.76 -0.635,-0.367 -1.087,-1.008 -1.37,-1.923 -0.281,-0.914 -0.417,-2.002 -0.417,-3.268 0,-1.303 0.333,-2.382 1.005,-3.232 0.674,-0.861 1.553,-1.614 2.647,-2.264 1.105,-0.648 2.353,-1.252 3.745,-1.782 1.395,-0.546 2.827,-1.119 4.298,-1.734 1.471,-0.616 2.905,-1.33 4.305,-2.119 1.391,-0.807 2.64,-1.79 3.738,-2.963 1.094,-1.173 1.979,-2.597 2.65,-4.273 C -0.337,4.408 0,2.382 0,0" /></g><path
           id="path50"
           style="fill:#ffffff;fill-opacity:1;fill-rule:nonzero;stroke:none"
           d="m 138.306,138.448 h 6.931 v -6.93 h -6.931 z" /><g
           transform="translate(39.4282,64.6602)"
           id="g52"><path
             id="path54"
             style="fill:#ffffff;fill-opacity:1;fill-rule:nonzero;stroke:none"
             d="m 0,0 c 0,-0.452 0.058,-0.861 0.18,-1.234 0.115,-0.367 0.272,-0.689 0.492,-0.948 0.207,-0.257 0.469,-0.459 0.77,-0.594 0.306,-0.145 0.658,-0.216 1.037,-0.216 0.38,0 0.725,0.071 1.026,0.216 0.306,0.135 0.563,0.337 0.778,0.594 0.209,0.259 0.377,0.581 0.495,0.948 0.109,0.373 0.169,0.782 0.169,1.234 0,0.459 -0.06,0.875 -0.169,1.241 C 4.66,1.614 4.492,1.93 4.283,2.191 4.068,2.45 3.811,2.654 3.505,2.79 3.204,2.935 2.859,3.002 2.479,3.002 2.1,3.002 1.748,2.935 1.442,2.79 1.141,2.654 0.879,2.45 0.672,2.191 0.452,1.93 0.295,1.614 0.18,1.241 0.058,0.875 0,0.459 0,0 m -1.104,0 c 0,0.646 0.1,1.212 0.287,1.707 0.193,0.484 0.452,0.894 0.782,1.228 0.33,0.329 0.707,0.577 1.147,0.738 C 1.551,3.835 2.01,3.921 2.504,3.921 2.981,3.921 3.44,3.835 3.867,3.673 4.298,3.512 4.675,3.264 4.998,2.935 5.324,2.601 5.582,2.191 5.772,1.707 5.963,1.212 6.066,0.646 6.066,0 6.066,-0.632 5.963,-1.206 5.772,-1.693 5.582,-2.182 5.324,-2.598 4.998,-2.921 4.675,-3.247 4.298,-3.491 3.867,-3.663 3.44,-3.831 2.981,-3.907 2.504,-3.907 c -0.494,0 -0.953,0.076 -1.392,0.244 -0.44,0.172 -0.817,0.416 -1.147,0.742 -0.33,0.323 -0.589,0.739 -0.782,1.228 -0.187,0.487 -0.287,1.061 -0.287,1.693" /></g><g
           transform="translate(48.3892,60.9111)"
           id="g56"><path
             id="path58"
             style="fill:#ffffff;fill-opacity:1;fill-rule:nonzero;stroke:none"
             d="m 0,0 v 3.01 c -0.502,0.767 -0.969,1.535 -1.406,2.281 -0.438,0.746 -0.854,1.488 -1.24,2.21 h 1.233 C -1.141,6.909 -0.839,6.303 -0.502,5.7 -0.157,5.09 0.188,4.502 0.553,3.942 0.904,4.502 1.249,5.09 1.586,5.7 1.931,6.303 2.235,6.909 2.522,7.501 H 3.691 C 3.305,6.779 2.889,6.045 2.443,5.299 2.002,4.553 1.539,3.792 1.048,3.031 V 0 Z" /></g><g
           transform="translate(55.8657,60.7529)"
           id="g60"><path
             id="path62"
             style="fill:#ffffff;fill-opacity:1;fill-rule:nonzero;stroke:none"
             d="M 0,0 C -0.488,0 -0.919,0.068 -1.277,0.227 -1.64,0.373 -1.931,0.582 -2.16,0.844 -2.393,1.109 -2.562,1.421 -2.68,1.779 -2.791,2.142 -2.849,2.529 -2.849,2.945 v 4.714 h 1.055 V 3.067 c 0,-0.75 0.169,-1.288 0.502,-1.635 0.33,-0.334 0.761,-0.506 1.292,-0.506 0.272,0 0.509,0.039 0.731,0.126 0.223,0.082 0.41,0.208 0.567,0.38 0.154,0.179 0.284,0.398 0.37,0.671 0.082,0.268 0.133,0.591 0.133,0.964 V 7.659 H 2.844 V 2.945 C 2.844,2.529 2.791,2.142 2.672,1.779 2.571,1.421 2.396,1.109 2.155,0.844 1.922,0.582 1.628,0.373 1.27,0.227 0.914,0.068 0.491,0 0,0" /></g><g
           transform="translate(65.6616,60.9111)"
           id="g64"><path
             id="path66"
             style="fill:#ffffff;fill-opacity:1;fill-rule:nonzero;stroke:none"
             d="M 0,0 C -0.161,0.27 -0.341,0.566 -0.545,0.9 -0.749,1.23 -0.972,1.574 -1.216,1.934 -1.452,2.292 -1.704,2.65 -1.954,3.017 -2.206,3.39 -2.472,3.741 -2.715,4.093 -2.974,4.427 -3.214,4.753 -3.454,5.051 -3.69,5.355 -3.909,5.621 -4.118,5.857 V 0 h -1.026 v 7.501 h 0.832 c 0.341,-0.362 0.708,-0.786 1.091,-1.263 0.384,-0.48 0.764,-0.975 1.144,-1.478 0.381,-0.516 0.739,-1.011 1.076,-1.499 0.33,-0.495 0.61,-0.933 0.848,-1.317 V 7.501 H 0.872 V 0 Z" /></g><g
           transform="translate(72.9761,67.5654)"
           id="g68"><path
             id="path70"
             style="fill:#ffffff;fill-opacity:1;fill-rule:nonzero;stroke:none"
             d="m 0,0 c -0.452,0 -0.789,-0.011 -1.033,-0.032 v -2.946 h 0.79 c 0.365,0 0.688,0.022 0.974,0.073 0.285,0.05 0.532,0.122 0.725,0.236 0.205,0.114 0.359,0.266 0.471,0.459 0.103,0.194 0.154,0.445 0.154,0.746 0,0.287 -0.051,0.531 -0.165,0.718 C 1.801,-0.56 1.653,-0.409 1.456,-0.298 1.271,-0.19 1.048,-0.107 0.797,-0.064 0.553,-0.018 0.28,0 0,0 m -0.086,0.918 c 1.051,0 1.858,-0.197 2.429,-0.599 0.566,-0.401 0.846,-1.001 0.846,-1.79 0,-0.43 -0.079,-0.803 -0.237,-1.105 C 2.802,-2.892 2.575,-3.135 2.285,-3.329 1.991,-3.516 1.644,-3.659 1.22,-3.745 0.804,-3.824 0.33,-3.874 -0.2,-3.874 h -0.833 v -2.78 H -2.08 v 7.389 c 0.298,0.072 0.631,0.122 0.989,0.144 0.366,0.025 0.696,0.039 1.005,0.039" /></g><g
           transform="translate(80.9614,63.6914)"
           id="g72"><path
             id="path74"
             style="fill:#ffffff;fill-opacity:1;fill-rule:nonzero;stroke:none"
             d="M 0,0 C -0.236,0.624 -0.463,1.233 -0.688,1.822 -0.918,2.41 -1.151,2.97 -1.399,3.519 -1.65,2.97 -1.887,2.41 -2.12,1.822 -2.343,1.233 -2.568,0.624 -2.795,0 Z m 0.982,-2.78 c -0.121,0.319 -0.236,0.645 -0.343,0.958 -0.108,0.308 -0.227,0.638 -0.345,0.961 h -3.39 L -3.777,-2.78 h -1.091 c 0.284,0.797 0.553,1.528 0.811,2.206 0.247,0.675 0.494,1.313 0.743,1.916 0.24,0.602 0.48,1.19 0.713,1.735 0.241,0.553 0.488,1.098 0.747,1.644 H -0.89 C -0.631,4.175 -0.381,3.63 -0.144,3.077 0.094,2.532 0.337,1.944 0.574,1.342 0.818,0.739 1.062,0.101 1.32,-0.574 1.571,-1.252 1.844,-1.983 2.131,-2.78 Z" /></g><g
           transform="translate(86.1841,67.5654)"
           id="g76"><path
             id="path78"
             style="fill:#ffffff;fill-opacity:1;fill-rule:nonzero;stroke:none"
             d="m 0,0 c -0.448,0 -0.793,-0.011 -1.029,-0.032 v -2.823 h 0.75 c 0.358,0 0.681,0.014 0.975,0.057 0.287,0.028 0.531,0.101 0.728,0.2 0.197,0.102 0.348,0.244 0.463,0.431 0.1,0.18 0.158,0.427 0.158,0.732 0,0.28 -0.058,0.513 -0.158,0.7 C 1.772,-0.553 1.629,-0.402 1.442,-0.291 1.26,-0.19 1.048,-0.107 0.793,-0.064 0.545,-0.018 0.287,0 0,0 m 1.593,-3.516 c 0.115,-0.146 0.259,-0.337 0.434,-0.57 0.183,-0.233 0.363,-0.491 0.549,-0.778 0.194,-0.287 0.373,-0.577 0.552,-0.89 0.186,-0.315 0.351,-0.613 0.481,-0.9 H 2.454 C 2.311,-6.378 2.16,-6.102 1.987,-5.822 1.818,-5.542 1.65,-5.266 1.475,-5.015 1.299,-4.76 1.13,-4.52 0.962,-4.294 0.793,-4.071 0.635,-3.881 0.499,-3.709 0.402,-3.724 0.313,-3.724 0.216,-3.724 h -0.298 -0.947 v -2.93 H -2.08 v 7.389 c 0.298,0.072 0.631,0.122 0.993,0.144 0.366,0.025 0.696,0.039 1.005,0.039 1.051,0 1.848,-0.197 2.406,-0.592 C 2.87,-0.072 3.15,-0.667 3.15,-1.449 3.15,-1.947 3.014,-2.379 2.755,-2.727 2.497,-3.078 2.105,-3.344 1.593,-3.516" /></g><g
           transform="translate(96.4653,68.4121)"
           id="g80"><path
             id="path82"
             style="fill:#ffffff;fill-opacity:1;fill-rule:nonzero;stroke:none"
             d="M 0,0 C -0.223,-0.247 -0.474,-0.521 -0.754,-0.817 -1.04,-1.119 -1.331,-1.425 -1.64,-1.736 -1.951,-2.052 -2.249,-2.36 -2.558,-2.665 -2.859,-2.97 -3.139,-3.25 -3.408,-3.509 c 0.312,-0.215 0.638,-0.48 0.983,-0.803 0.345,-0.316 0.689,-0.653 1.019,-1.015 0.334,-0.359 0.645,-0.729 0.936,-1.098 0.29,-0.38 0.534,-0.735 0.728,-1.076 h -1.234 c -0.215,0.341 -0.462,0.686 -0.743,1.022 -0.283,0.345 -0.581,0.675 -0.896,0.991 -0.309,0.308 -0.631,0.602 -0.948,0.868 -0.326,0.258 -0.638,0.494 -0.935,0.674 V -7.501 H -5.553 V 0 h 1.055 v -3.314 c 0.247,0.24 0.527,0.505 0.832,0.803 0.298,0.301 0.599,0.606 0.896,0.904 0.291,0.305 0.571,0.599 0.84,0.872 0.266,0.279 0.485,0.519 0.66,0.735 z" /></g><path
           id="path84"
           style="fill:#ffffff;fill-opacity:1;fill-rule:nonzero;stroke:none"
           d="m 97.721,68.412 h 1.047 v -7.501 h -1.047 z" /><path
           id="path86"
           style="fill:#ffffff;fill-opacity:1;fill-rule:nonzero;stroke:none"
           d="m 103.13,68.412 h 1.055 v -7.501 h -1.055 z m 0.535,0.832 c -0.183,0 -0.337,0.058 -0.466,0.176 -0.118,0.122 -0.187,0.283 -0.187,0.48 0,0.208 0.069,0.363 0.187,0.482 0.129,0.121 0.283,0.182 0.466,0.182 0.175,0 0.33,-0.061 0.456,-0.182 0.129,-0.119 0.193,-0.274 0.193,-0.482 0,-0.197 -0.064,-0.358 -0.193,-0.48 -0.126,-0.118 -0.281,-0.176 -0.456,-0.176" /><g
           transform="translate(107.7827,61.6611)"
           id="g88"><path
             id="path90"
             style="fill:#ffffff;fill-opacity:1;fill-rule:nonzero;stroke:none"
             d="m 0,0 c 1.098,0 1.644,0.369 1.644,1.126 0,0.223 -0.043,0.42 -0.152,0.589 C 1.403,1.872 1.267,2.016 1.104,2.131 0.937,2.252 0.75,2.36 0.531,2.439 0.327,2.525 0.097,2.618 -0.144,2.705 c -0.272,0.086 -0.534,0.2 -0.778,0.316 -0.236,0.122 -0.459,0.257 -0.639,0.422 -0.178,0.165 -0.322,0.352 -0.426,0.581 -0.104,0.216 -0.155,0.489 -0.155,0.811 0,0.653 0.223,1.166 0.675,1.532 0.445,0.369 1.058,0.553 1.844,0.553 0.455,0 0.872,-0.047 1.241,-0.145 C 1.987,6.68 2.26,6.575 2.433,6.457 L 2.099,5.6 C 1.952,5.692 1.722,5.789 1.425,5.879 1.123,5.965 0.771,6.016 0.377,6.016 0.176,6.016 -0.015,5.99 -0.183,5.951 -0.354,5.904 -0.506,5.84 -0.635,5.758 -0.764,5.664 -0.872,5.553 -0.95,5.424 -1.022,5.287 -1.058,5.133 -1.058,4.95 -1.058,4.749 -1.022,4.58 -0.943,4.44 -0.857,4.305 -0.749,4.183 -0.606,4.078 -0.463,3.975 -0.29,3.889 -0.104,3.795 0.09,3.709 0.298,3.623 0.531,3.533 0.857,3.4 1.151,3.271 1.425,3.143 1.689,3.013 1.931,2.855 2.124,2.676 2.325,2.504 2.476,2.288 2.587,2.037 2.69,1.793 2.748,1.484 2.748,1.13 2.748,0.545 2.554,0.082 2.171,-0.262 1.779,-0.613 1.228,-0.822 0.506,-0.89 L 0.392,-1.152 C 0.599,-1.248 0.75,-1.367 0.843,-1.481 0.937,-1.6 0.986,-1.775 0.986,-2.002 0.986,-2.088 0.969,-2.17 0.929,-2.264 0.897,-2.36 0.832,-2.443 0.75,-2.521 0.664,-2.602 0.546,-2.666 0.401,-2.716 0.259,-2.77 0.075,-2.795 -0.133,-2.795 c -0.186,0 -0.351,0.011 -0.509,0.043 -0.158,0.029 -0.28,0.062 -0.373,0.101 l 0.121,0.61 c 0.08,-0.029 0.173,-0.051 0.274,-0.072 0.093,-0.018 0.204,-0.033 0.33,-0.033 0.258,0 0.387,0.083 0.387,0.248 0,0.08 -0.035,0.144 -0.115,0.201 -0.086,0.051 -0.194,0.111 -0.336,0.169 l -0.08,0.032 c 0.029,0.079 0.065,0.169 0.108,0.272 0.039,0.105 0.093,0.208 0.143,0.316 -0.272,0.004 -0.523,0.021 -0.754,0.061 -0.221,0.039 -0.429,0.093 -0.609,0.144 -0.18,0.054 -0.337,0.111 -0.467,0.168 -0.129,0.061 -0.236,0.104 -0.3,0.151 L -1.998,0.48 C -1.84,0.387 -1.582,0.287 -1.245,0.168 -0.9,0.054 -0.491,0 0,0" /></g><g
           transform="translate(116.3091,61.8223)"
           id="g92"><path
             id="path94"
             style="fill:#ffffff;fill-opacity:1;fill-rule:nonzero;stroke:none"
             d="M 0,0 V -0.911 H -4.509 V 6.59 h 1.044 V 0 Z" /></g><g
           transform="translate(117.4146,60.9111)"
           id="g96"><path
             id="path98"
             style="fill:#ffffff;fill-opacity:1;fill-rule:nonzero;stroke:none"
             d="M 0,0 V 7.501 H 4.574 V 6.597 H 1.051 V 4.373 H 4.183 V 3.49 H 1.051 V 0.9 H 4.85 V 0 Z" /></g><g
           transform="translate(128.603,68.4121)"
           id="g100"><path
             id="path102"
             style="fill:#ffffff;fill-opacity:1;fill-rule:nonzero;stroke:none"
             d="m 0,0 v -0.911 h -2.36 v -6.59 h -1.051 v 6.59 h -2.36 V 0 Z" /></g><g
           transform="translate(133.0728,61.9482)"
           id="g104"><path
             id="path106"
             style="fill:#ffffff;fill-opacity:1;fill-rule:nonzero;stroke:none"
             d="M 0,0 C -0.075,0.176 -0.169,0.395 -0.283,0.66 -0.409,0.925 -0.542,1.219 -0.678,1.527 -0.814,1.836 -0.958,2.152 -1.108,2.482 -1.267,2.813 -1.417,3.121 -1.546,3.414 -1.689,3.709 -1.812,3.967 -1.934,4.2 -2.056,4.43 -2.148,4.605 -2.221,4.728 -2.3,3.877 -2.364,2.955 -2.414,1.965 -2.468,0.976 -2.508,-0.029 -2.543,-1.037 h -1.03 c 0.025,0.645 0.065,1.303 0.096,1.962 0.034,0.66 0.08,1.305 0.126,1.952 0.047,0.639 0.097,1.262 0.151,1.865 0.054,0.603 0.115,1.176 0.179,1.722 h 0.916 c 0.193,-0.319 0.405,-0.696 0.63,-1.126 0.23,-0.435 0.453,-0.891 0.668,-1.363 0.229,-0.467 0.445,-0.941 0.653,-1.417 0.208,-0.467 0.401,-0.901 0.57,-1.285 0.176,0.384 0.362,0.818 0.57,1.285 0.215,0.476 0.431,0.95 0.657,1.417 0.222,0.472 0.445,0.928 0.67,1.363 0.223,0.43 0.427,0.807 0.625,1.126 H 3.859 C 4.107,4.046 4.29,1.546 4.412,-1.037 H 3.387 C 3.351,-0.029 3.3,0.976 3.257,1.965 3.207,2.955 3.143,3.877 3.063,4.728 2.992,4.605 2.891,4.43 2.776,4.2 2.654,3.967 2.521,3.709 2.393,3.414 2.249,3.121 2.105,2.813 1.951,2.482 1.793,2.152 1.65,1.836 1.507,1.527 1.377,1.219 1.248,0.925 1.13,0.66 1.008,0.395 0.911,0.176 0.847,0 Z" /></g><g
           transform="translate(139.1313,60.9111)"
           id="g108"><path
             id="path110"
             style="fill:#ffffff;fill-opacity:1;fill-rule:nonzero;stroke:none"
             d="M 0,0 V 7.501 H 4.574 V 6.597 H 1.048 V 4.373 H 4.183 V 3.49 H 1.048 V 0.9 H 4.847 V 0 Z" /></g><g
           transform="translate(149.5562,61.6611)"
           id="g112"><path
             id="path114"
             style="fill:#ffffff;fill-opacity:1;fill-rule:nonzero;stroke:none"
             d="m 0,0 c 1.091,0 1.636,0.369 1.636,1.126 0,0.223 -0.047,0.42 -0.144,0.589 C 1.392,1.872 1.263,2.016 1.098,2.131 0.933,2.252 0.739,2.36 0.53,2.439 0.315,2.525 0.086,2.618 -0.144,2.705 c -0.273,0.086 -0.531,0.2 -0.782,0.316 -0.244,0.122 -0.459,0.257 -0.638,0.422 -0.179,0.165 -0.324,0.352 -0.431,0.581 -0.1,0.216 -0.151,0.489 -0.151,0.811 0,0.653 0.219,1.166 0.667,1.532 0.446,0.369 1.07,0.553 1.852,0.553 0.455,0 0.864,-0.047 1.233,-0.145 0.377,-0.095 0.65,-0.2 0.823,-0.318 L 2.087,5.6 C 1.94,5.692 1.711,5.789 1.413,5.879 1.112,5.965 0.768,6.016 0.373,6.016 0.165,6.016 -0.015,5.99 -0.194,5.951 -0.366,5.904 -0.517,5.84 -0.646,5.758 -0.775,5.664 -0.876,5.553 -0.951,5.424 -1.033,5.287 -1.069,5.133 -1.069,4.95 c 0,-0.201 0.036,-0.37 0.122,-0.51 0.079,-0.135 0.186,-0.257 0.33,-0.362 C -0.474,3.975 -0.302,3.889 -0.108,3.795 0.079,3.709 0.294,3.623 0.523,3.533 0.847,3.4 1.147,3.271 1.413,3.143 1.686,3.013 1.923,2.855 2.112,2.676 2.317,2.504 2.472,2.288 2.575,2.037 2.687,1.793 2.74,1.484 2.74,1.13 2.74,0.48 2.504,-0.029 2.022,-0.384 1.542,-0.735 0.868,-0.908 0,-0.908 c -0.302,0 -0.574,0.018 -0.818,0.057 -0.251,0.037 -0.481,0.083 -0.675,0.137 -0.186,0.058 -0.359,0.114 -0.502,0.172 -0.14,0.068 -0.251,0.111 -0.326,0.158 L -2.002,0.48 C -1.844,0.387 -1.586,0.287 -1.249,0.168 -0.911,0.054 -0.495,0 0,0" /></g><path
           id="path116"
           style="fill:#ffffff;fill-opacity:1;fill-rule:nonzero;stroke:none"
           d="m 153.563,68.412 h 1.055 v -7.501 h -1.055 z m 0.531,0.832 c -0.179,0 -0.33,0.058 -0.46,0.176 -0.122,0.122 -0.19,0.283 -0.19,0.48 0,0.208 0.068,0.363 0.19,0.482 0.13,0.121 0.281,0.182 0.46,0.182 0.183,0 0.333,-0.061 0.462,-0.182 0.122,-0.119 0.191,-0.274 0.191,-0.482 0,-0.197 -0.069,-0.358 -0.191,-0.48 -0.129,-0.118 -0.279,-0.176 -0.462,-0.176" /><g
           transform="translate(158.2153,61.6611)"
           id="g118"><path
             id="path120"
             style="fill:#ffffff;fill-opacity:1;fill-rule:nonzero;stroke:none"
             d="M 0,0 C 1.098,0 1.643,0.369 1.643,1.126 1.643,1.349 1.6,1.546 1.5,1.715 1.402,1.872 1.267,2.016 1.105,2.131 0.939,2.252 0.746,2.36 0.538,2.439 0.323,2.525 0.101,2.618 -0.137,2.705 c -0.272,0.086 -0.53,0.2 -0.781,0.316 -0.244,0.122 -0.459,0.257 -0.632,0.422 -0.186,0.165 -0.33,0.352 -0.43,0.581 -0.108,0.216 -0.158,0.489 -0.158,0.811 0,0.653 0.222,1.166 0.667,1.532 0.452,0.369 1.062,0.553 1.852,0.553 0.455,0 0.864,-0.047 1.237,-0.145 C 1.987,6.68 2.26,6.575 2.436,6.457 L 2.099,5.6 C 1.948,5.692 1.722,5.789 1.421,5.879 1.123,5.965 0.775,6.016 0.381,6.016 0.172,6.016 -0.007,5.99 -0.18,5.951 -0.358,5.904 -0.51,5.84 -0.639,5.758 -0.768,5.664 -0.868,5.553 -0.943,5.424 -1.019,5.287 -1.062,5.133 -1.062,4.95 c 0,-0.201 0.043,-0.37 0.119,-0.51 0.086,-0.135 0.197,-0.257 0.34,-0.362 C -0.459,3.975 -0.294,3.889 -0.101,3.795 0.094,3.709 0.305,3.623 0.531,3.533 0.857,3.4 1.155,3.271 1.421,3.143 1.697,3.013 1.926,2.855 2.124,2.676 2.324,2.504 2.475,2.288 2.586,2.037 2.697,1.793 2.748,1.484 2.748,1.13 2.748,0.48 2.515,-0.029 2.034,-0.384 1.553,-0.735 0.875,-0.908 0,-0.908 c -0.294,0 -0.566,0.018 -0.811,0.057 -0.257,0.037 -0.473,0.083 -0.674,0.137 -0.194,0.058 -0.352,0.114 -0.495,0.172 -0.143,0.068 -0.254,0.111 -0.333,0.158 L -2.002,0.48 C -1.829,0.387 -1.578,0.287 -1.241,0.168 -0.904,0.054 -0.488,0 0,0" /></g><g
           transform="translate(167.2407,68.4121)"
           id="g122"><path
             id="path124"
             style="fill:#ffffff;fill-opacity:1;fill-rule:nonzero;stroke:none"
             d="m 0,0 v -0.911 h -2.36 v -6.59 h -1.044 v 6.59 H -5.771 V 0 Z" /></g><g
           transform="translate(168.3462,60.9111)"
           id="g126"><path
             id="path128"
             style="fill:#ffffff;fill-opacity:1;fill-rule:nonzero;stroke:none"
             d="M 0,0 V 7.501 H 4.576 V 6.597 H 1.051 V 4.373 H 4.186 V 3.49 H 1.051 V 0.9 H 4.85 V 0 Z" /></g><g
           transform="translate(177.8911,61.9482)"
           id="g130"><path
             id="path132"
             style="fill:#ffffff;fill-opacity:1;fill-rule:nonzero;stroke:none"
             d="M 0,0 C -0.072,0.176 -0.168,0.395 -0.294,0.66 -0.409,0.925 -0.538,1.219 -0.671,1.527 -0.814,1.836 -0.954,2.152 -1.112,2.482 -1.266,2.813 -1.41,3.121 -1.553,3.414 -1.689,3.709 -1.812,3.967 -1.93,4.2 -2.056,4.43 -2.152,4.605 -2.221,4.728 -2.299,3.877 -2.364,2.955 -2.41,1.965 -2.465,0.976 -2.508,-0.029 -2.543,-1.037 h -1.033 c 0.035,0.645 0.056,1.303 0.1,1.962 0.037,0.66 0.08,1.305 0.122,1.952 0.05,0.639 0.1,1.262 0.151,1.865 0.057,0.603 0.114,1.176 0.18,1.722 h 0.924 C -1.904,6.145 -1.697,5.768 -1.475,5.338 -1.252,4.903 -1.025,4.447 -0.8,3.975 -0.577,3.508 -0.365,3.034 -0.15,2.558 0.058,2.091 0.248,1.657 0.424,1.273 c 0.168,0.384 0.361,0.818 0.57,1.285 0.207,0.476 0.423,0.95 0.649,1.417 0.222,0.472 0.441,0.928 0.67,1.363 0.223,0.43 0.435,0.807 0.632,1.126 H 3.859 C 4.107,4.046 4.287,1.546 4.408,-1.037 H 3.387 C 3.347,-0.029 3.308,0.976 3.258,1.965 3.203,2.955 3.139,3.877 3.061,4.728 2.988,4.605 2.892,4.43 2.773,4.2 2.658,3.967 2.529,3.709 2.393,3.414 2.256,3.121 2.105,2.813 1.948,2.482 1.794,2.152 1.65,1.836 1.514,1.527 1.37,1.219 1.248,0.925 1.13,0.66 1.008,0.395 0.918,0.176 0.84,0 Z" /></g><path
           id="path134"
           style="fill:#ffffff;fill-opacity:1;fill-rule:nonzero;stroke:none"
           d="m 183.946,68.412 h 1.048 v -7.501 h -1.048 z m 0.527,0.832 c -0.172,0 -0.33,0.058 -0.451,0.176 -0.133,0.122 -0.194,0.283 -0.194,0.48 0,0.208 0.061,0.363 0.194,0.482 0.121,0.121 0.279,0.182 0.451,0.182 0.18,0 0.338,-0.061 0.467,-0.182 0.126,-0.119 0.19,-0.274 0.19,-0.482 0,-0.197 -0.064,-0.358 -0.19,-0.48 -0.129,-0.118 -0.287,-0.176 -0.467,-0.176" /></g></g></g></svg>